STARTFONT 2.1
COMMENT  
COMMENT  WARNING:  This bdf file was generated from an X server using
COMMENT  xbdfdump.  The resulting font is subject to the same copyright,
COMMENT  license, and trademark restrictions as the original font.  The
COMMENT  author and distributors of xbdfdump disclaim all liability for
COMMENT  misuse of the program or its output.
COMMENT  
FONT -phaisarn-angsana-medium-r-normal--14-140-75-75-p-75-tis620-0
SIZE 14 75 75
FONTBOUNDINGBOX 34 39 -11 -12
STARTPROPERTIES 26
FOUNDRY "Phaisarn"
FAMILY_NAME "Angsana"
WEIGHT_NAME "medium"
SLANT "r"
SETWIDTH_NAME "normal"
ADD_STYLE_NAME ""
PIXEL_SIZE 14
POINT_SIZE 140
RESOLUTION_X 75
RESOLUTION_Y 75
SPACING "p"
AVERAGE_WIDTH 75
CHARSET_REGISTRY "tis620"
CHARSET_ENCODING "0"
COPYRIGHT "Angsana by Pt-TITech 1997"
RAW_PIXELSIZE 1000
RAW_POINTSIZE 723
RAW_ASCENT 736
RAW_DESCENT "RAW_FIGURE_WIDTH"
RAW_AVERAGE_WIDTH 2994
FACE_NAME "Angsana"
WEIGHT 10
X_HEIGHT 8
QUAD_WIDTH 12
FONT_ASCENT 25
FONT_DESCENT 10
ENDPROPERTIES
CHARS 199
STARTCHAR space
ENCODING 32
SWIDTH 342 0
DWIDTH 5 0
BBX 0 0 0 0
BITMAP
ENDCHAR
STARTCHAR exclam
ENCODING 33
SWIDTH 411 0
DWIDTH 6 0
BBX 2 13 2 0
BITMAP
c0
c0
c0
c0
c0
c0
40
40
40
00
00
c0
c0
ENDCHAR
STARTCHAR quotedbl
ENCODING 34
SWIDTH 548 0
DWIDTH 8 0
BBX 5 5 1 7
BITMAP
d8
d8
d8
d8
48
ENDCHAR
STARTCHAR numbersign
ENCODING 35
SWIDTH 617 0
DWIDTH 9 0
BBX 9 13 0 0
BITMAP
1100
1100
1100
1100
ff80
2200
2200
2200
ff80
4200
4400
4400
4400
ENDCHAR
STARTCHAR dollar
ENCODING 36
SWIDTH 617 0
DWIDTH 9 0
BBX 8 15 1 -1
BITMAP
10
3e
52
d2
d0
70
30
1c
1e
17
93
93
d4
38
10
ENDCHAR
STARTCHAR percent
ENCODING 37
SWIDTH 1097 0
DWIDTH 16 0
BBX 14 14 1 -1
BITMAP
3020
4820
cc40
cc40
cc80
4880
3130
0248
02cc
04cc
04cc
08cc
0848
1030
ENDCHAR
STARTCHAR ampersand
ENCODING 38
SWIDTH 1028 0
DWIDTH 15 0
BBX 14 13 1 0
BITMAP
0700
0c80
1880
1880
1900
0e78
0c20
3620
4340
c180
c1c4
62e8
3c70
ENDCHAR
STARTCHAR apostrophe
ENCODING 39
SWIDTH 205 0
DWIDTH 3 0
BBX 2 5 1 7
BITMAP
c0
c0
c0
c0
40
ENDCHAR
STARTCHAR parenleft
ENCODING 40
SWIDTH 411 0
DWIDTH 6 0
BBX 5 17 1 -4
BITMAP
08
10
20
60
40
40
c0
c0
c0
c0
c0
40
40
20
20
10
08
ENDCHAR
STARTCHAR parenright
ENCODING 41
SWIDTH 411 0
DWIDTH 6 0
BBX 6 17 0 -4
BITMAP
80
60
10
10
18
08
0c
0c
0c
0c
0c
08
18
18
10
20
c0
ENDCHAR
STARTCHAR asterisk
ENCODING 42
SWIDTH 617 0
DWIDTH 9 0
BBX 6 8 2 5
BITMAP
30
30
a4
78
78
a4
30
30
ENDCHAR
STARTCHAR plus
ENCODING 43
SWIDTH 754 0
DWIDTH 11 0
BBX 10 10 0 1
BITMAP
0400
0400
0400
0400
ffc0
0400
0400
0400
0400
0400
ENDCHAR
STARTCHAR comma
ENCODING 44
SWIDTH 342 0
DWIDTH 5 0
BBX 3 5 1 -3
BITMAP
c0
e0
20
40
80
ENDCHAR
STARTCHAR minus
ENCODING 45
SWIDTH 411 0
DWIDTH 6 0
BBX 5 1 1 4
BITMAP
f8
ENDCHAR
STARTCHAR period
ENCODING 46
SWIDTH 342 0
DWIDTH 5 0
BBX 2 2 1 0
BITMAP
c0
c0
ENDCHAR
STARTCHAR slash
ENCODING 47
SWIDTH 342 0
DWIDTH 5 0
BBX 5 13 0 0
BITMAP
08
08
08
10
10
20
20
20
40
40
40
80
80
ENDCHAR
STARTCHAR 0
ENCODING 48
SWIDTH 617 0
DWIDTH 9 0
BBX 8 13 1 0
BITMAP
18
24
62
42
c3
c3
c3
c3
c3
42
66
24
18
ENDCHAR
STARTCHAR 1
ENCODING 49
SWIDTH 617 0
DWIDTH 9 0
BBX 4 13 3 0
BITMAP
20
e0
60
60
60
60
60
60
60
60
60
60
f0
ENDCHAR
STARTCHAR 2
ENCODING 50
SWIDTH 617 0
DWIDTH 9 0
BBX 9 13 0 0
BITMAP
3c00
4600
c700
0300
0300
0200
0600
0400
0800
1000
2000
4080
ff00
ENDCHAR
STARTCHAR 3
ENCODING 51
SWIDTH 617 0
DWIDTH 9 0
BBX 7 13 1 0
BITMAP
78
9c
8c
0c
08
18
3c
0e
06
02
04
8c
f0
ENDCHAR
STARTCHAR 4
ENCODING 52
SWIDTH 617 0
DWIDTH 9 0
BBX 8 13 0 0
BITMAP
06
06
0e
16
16
26
26
46
86
ff
06
06
06
ENDCHAR
STARTCHAR 5
ENCODING 53
SWIDTH 617 0
DWIDTH 9 0
BBX 7 13 1 0
BITMAP
1e
3e
20
40
78
bc
06
06
02
02
04
cc
f0
ENDCHAR
STARTCHAR 6
ENCODING 54
SWIDTH 617 0
DWIDTH 9 0
BBX 8 13 1 0
BITMAP
07
18
30
20
60
5c
e6
c3
c3
c3
42
24
18
ENDCHAR
STARTCHAR 7
ENCODING 55
SWIDTH 617 0
DWIDTH 9 0
BBX 8 13 1 0
BITMAP
7f
83
82
02
06
04
04
0c
08
08
08
10
10
ENDCHAR
STARTCHAR 8
ENCODING 56
SWIDTH 617 0
DWIDTH 9 0
BBX 7 13 1 0
BITMAP
3c
42
82
82
66
74
1c
6c
c6
c2
c2
62
3c
ENDCHAR
STARTCHAR 9
ENCODING 57
SWIDTH 617 0
DWIDTH 9 0
BBX 8 13 1 0
BITMAP
18
64
42
c3
c3
e3
67
3a
06
04
08
10
e0
ENDCHAR
STARTCHAR colon
ENCODING 58
SWIDTH 342 0
DWIDTH 5 0
BBX 2 9 2 0
BITMAP
c0
c0
00
00
00
00
00
c0
c0
ENDCHAR
STARTCHAR semicolon
ENCODING 59
SWIDTH 342 0
DWIDTH 5 0
BBX 2 12 2 -3
BITMAP
c0
80
00
00
00
00
00
c0
c0
40
40
80
ENDCHAR
STARTCHAR less
ENCODING 60
SWIDTH 754 0
DWIDTH 11 0
BBX 10 9 0 2
BITMAP
0040
0380
0c00
3000
c000
3000
0c00
0380
0040
ENDCHAR
STARTCHAR equal
ENCODING 61
SWIDTH 754 0
DWIDTH 11 0
BBX 10 4 0 4
BITMAP
ffc0
0000
0000
ffc0
ENDCHAR
STARTCHAR greater
ENCODING 62
SWIDTH 754 0
DWIDTH 11 0
BBX 10 9 0 2
BITMAP
8000
7000
0c00
0300
00c0
0380
0c00
7000
8000
ENDCHAR
STARTCHAR question
ENCODING 63
SWIDTH 548 0
DWIDTH 8 0
BBX 7 13 1 0
BITMAP
78
4c
86
c6
06
0c
08
10
10
10
00
30
30
ENDCHAR
STARTCHAR at
ENCODING 64
SWIDTH 1165 0
DWIDTH 17 0
BBX 16 17 1 -4
BITMAP
01e0
0618
1804
2004
40d2
4122
c222
8622
8422
8c44
8cc4
8f49
4671
4002
300c
0c10
03e0
ENDCHAR
STARTCHAR A
ENCODING 65
SWIDTH 960 0
DWIDTH 14 0
BBX 14 13 0 0
BITMAP
0100
0300
0300
0580
0580
08c0
08c0
1060
1fe0
2060
2030
6038
f07c
ENDCHAR
STARTCHAR B
ENCODING 66
SWIDTH 891 0
DWIDTH 13 0
BBX 12 13 0 0
BITMAP
ff00
31c0
30e0
3060
3060
30c0
3f80
30e0
3070
3030
3030
30c0
ff00
ENDCHAR
STARTCHAR C
ENCODING 67
SWIDTH 891 0
DWIDTH 13 0
BBX 11 13 1 0
BITMAP
0f20
18e0
2020
6020
4000
c000
c000
c000
c000
6000
6020
38c0
0f00
ENDCHAR
STARTCHAR D
ENCODING 68
SWIDTH 960 0
DWIDTH 14 0
BBX 13 13 0 0
BITMAP
ff00
30e0
3030
3030
3018
3018
3018
3018
3018
3030
3030
30e0
ff00
ENDCHAR
STARTCHAR E
ENCODING 69
SWIDTH 822 0
DWIDTH 12 0
BBX 11 13 0 0
BITMAP
ffc0
3040
3020
3000
3040
3080
3f80
3080
3040
3000
3020
3060
ffc0
ENDCHAR
STARTCHAR F
ENCODING 70
SWIDTH 754 0
DWIDTH 11 0
BBX 10 13 0 0
BITMAP
ff80
3080
3040
3000
3000
3100
3f00
3100
3100
3000
3000
3000
fc00
ENDCHAR
STARTCHAR G
ENCODING 71
SWIDTH 960 0
DWIDTH 14 0
BBX 12 13 1 0
BITMAP
0f20
10e0
2020
6020
6000
c000
c1f0
c060
c060
6060
6060
3060
0f80
ENDCHAR
STARTCHAR H
ENCODING 72
SWIDTH 960 0
DWIDTH 14 0
BBX 14 13 0 0
BITMAP
fcfc
3030
3030
3030
3030
3030
3ff0
3030
3030
3030
3030
3030
fcfc
ENDCHAR
STARTCHAR I
ENCODING 73
SWIDTH 411 0
DWIDTH 6 0
BBX 6 13 0 0
BITMAP
fc
30
30
30
30
30
30
30
30
30
30
30
fc
ENDCHAR
STARTCHAR J
ENCODING 74
SWIDTH 480 0
DWIDTH 7 0
BBX 7 13 0 0
BITMAP
7e
18
18
18
18
18
18
18
18
18
98
d0
e0
ENDCHAR
STARTCHAR K
ENCODING 75
SWIDTH 960 0
DWIDTH 14 0
BBX 14 13 0 0
BITMAP
fdf0
3060
3080
3100
3200
3400
3e00
3700
3380
31c0
30e0
3070
fcfc
ENDCHAR
STARTCHAR L
ENCODING 76
SWIDTH 822 0
DWIDTH 12 0
BBX 12 13 0 0
BITMAP
fc00
3000
3000
3000
3000
3000
3000
3000
3000
3010
3020
3040
ffc0
ENDCHAR
STARTCHAR M
ENCODING 77
SWIDTH 1165 0
DWIDTH 17 0
BBX 17 13 0 0
BITMAP
f00780
380e00
380e00
3c1e00
2c1600
2e3600
262600
262600
234600
234600
218600
218600
f89f80
ENDCHAR
STARTCHAR N
ENCODING 78
SWIDTH 960 0
DWIDTH 14 0
BBX 14 13 0 0
BITMAP
f07c
7010
3810
3c10
2e10
2710
2390
2190
20d0
2070
2070
2030
f810
ENDCHAR
STARTCHAR O
ENCODING 79
SWIDTH 960 0
DWIDTH 14 0
BBX 12 13 1 0
BITMAP
0f00
30c0
6060
6060
c030
c030
c030
c030
c030
6060
6060
30c0
0f00
ENDCHAR
STARTCHAR P
ENCODING 80
SWIDTH 754 0
DWIDTH 11 0
BBX 10 13 0 0
BITMAP
fe00
3180
30c0
30c0
30c0
3180
3f00
3000
3000
3000
3000
3000
fc00
ENDCHAR
STARTCHAR Q
ENCODING 81
SWIDTH 960 0
DWIDTH 14 0
BBX 12 17 1 -4
BITMAP
0f00
30c0
6060
6060
c030
c030
c030
c030
c030
c030
6060
2040
1080
0f00
0300
0180
0070
ENDCHAR
STARTCHAR R
ENCODING 82
SWIDTH 891 0
DWIDTH 13 0
BBX 12 13 0 0
BITMAP
fe00
3180
30c0
30c0
30c0
3380
3e00
3300
3300
3180
30c0
30e0
fc70
ENDCHAR
STARTCHAR S
ENCODING 83
SWIDTH 754 0
DWIDTH 11 0
BBX 9 13 1 0
BITMAP
3d00
6300
c100
c100
7000
3800
1e00
0f00
0380
8180
8180
e300
9e00
ENDCHAR
STARTCHAR T
ENCODING 84
SWIDTH 822 0
DWIDTH 12 0
BBX 11 13 1 0
BITMAP
ffc0
8c40
8c20
0c00
0c00
0c00
0c00
0c00
0c00
0c00
0c00
0c00
3f00
ENDCHAR
STARTCHAR U
ENCODING 85
SWIDTH 960 0
DWIDTH 14 0
BBX 14 13 0 0
BITMAP
fc7c
3010
3010
3010
3010
3010
3010
3010
3010
3010
3820
1c60
0780
ENDCHAR
STARTCHAR V
ENCODING 86
SWIDTH 960 0
DWIDTH 14 0
BBX 13 13 0 0
BITMAP
f878
7030
3020
3020
1840
1840
0840
0c80
0480
0700
0700
0200
0200
ENDCHAR
STARTCHAR W
ENCODING 87
SWIDTH 1234 0
DWIDTH 18 0
BBX 18 13 0 0
BITMAP
fbe3c0
71c180
30c100
30c100
18c100
18e200
18e200
0d3400
0d3400
0e1400
061800
061800
020800
ENDCHAR
STARTCHAR X
ENCODING 88
SWIDTH 960 0
DWIDTH 14 0
BBX 13 13 0 0
BITMAP
fcf8
3860
1840
0c80
0680
0700
0300
0580
0580
08c0
10e0
7070
f8f8
ENDCHAR
STARTCHAR Y
ENCODING 89
SWIDTH 960 0
DWIDTH 14 0
BBX 13 13 0 0
BITMAP
f878
7010
3020
1820
0c40
0e80
0680
0300
0300
0300
0300
0700
0fc0
ENDCHAR
STARTCHAR Z
ENCODING 90
SWIDTH 822 0
DWIDTH 12 0
BBX 12 13 0 0
BITMAP
7fe0
40c0
4180
0300
0300
0600
0c00
0c00
1800
3010
6020
6020
ffe0
ENDCHAR
STARTCHAR bracketleft
ENCODING 91
SWIDTH 411 0
DWIDTH 6 0
BBX 4 17 2 -4
BITMAP
f0
80
80
80
80
80
80
80
80
80
80
80
80
80
80
80
f0
ENDCHAR
STARTCHAR backslash
ENCODING 92
SWIDTH 342 0
DWIDTH 5 0
BBX 5 13 0 0
BITMAP
80
80
40
40
40
20
20
20
10
10
08
08
08
ENDCHAR
STARTCHAR bracketright
ENCODING 93
SWIDTH 411 0
DWIDTH 6 0
BBX 4 17 1 -4
BITMAP
f0
10
10
10
10
10
10
10
10
10
10
10
10
10
10
10
f0
ENDCHAR
STARTCHAR asciicircum
ENCODING 94
SWIDTH 617 0
DWIDTH 9 0
BBX 8 7 0 6
BITMAP
08
18
24
24
42
42
81
ENDCHAR
STARTCHAR underscore
ENCODING 95
SWIDTH 617 0
DWIDTH 9 0
BBX 10 1 0 -4
BITMAP
ffc0
ENDCHAR
STARTCHAR grave
ENCODING 96
SWIDTH 411 0
DWIDTH 6 0
BBX 3 3 1 10
BITMAP
c0
60
20
ENDCHAR
STARTCHAR a
ENCODING 97
SWIDTH 548 0
DWIDTH 8 0
BBX 8 9 1 0
BITMAP
30
4c
cc
1c
2c
cc
cc
dd
6e
ENDCHAR
STARTCHAR b
ENCODING 98
SWIDTH 617 0
DWIDTH 9 0
BBX 9 13 0 0
BITMAP
e000
6000
6000
6000
6e00
7300
6380
6180
6180
6180
6300
7200
1c00
ENDCHAR
STARTCHAR c
ENCODING 99
SWIDTH 548 0
DWIDTH 8 0
BBX 8 9 1 0
BITMAP
18
24
46
c0
c0
c0
e1
62
3c
ENDCHAR
STARTCHAR d
ENCODING 100
SWIDTH 617 0
DWIDTH 9 0
BBX 9 13 1 0
BITMAP
0e00
0600
0600
0600
1e00
2e00
4600
c600
c600
c600
c600
6e80
3700
ENDCHAR
STARTCHAR e
ENCODING 101
SWIDTH 548 0
DWIDTH 8 0
BBX 7 9 1 0
BITMAP
38
4c
46
fe
80
80
c2
62
3c
ENDCHAR
STARTCHAR f
ENCODING 102
SWIDTH 411 0
DWIDTH 6 0
BBX 7 13 1 0
BITMAP
1c
26
62
60
60
f8
60
60
60
60
60
60
f8
ENDCHAR
STARTCHAR g
ENCODING 103
SWIDTH 617 0
DWIDTH 9 0
BBX 8 13 1 -4
BITMAP
38
4f
c6
c6
c6
64
38
40
fe
81
81
c2
7c
ENDCHAR
STARTCHAR h
ENCODING 104
SWIDTH 617 0
DWIDTH 9 0
BBX 8 13 1 0
BITMAP
e0
60
60
60
6c
76
66
66
66
66
66
66
ff
ENDCHAR
STARTCHAR i
ENCODING 105
SWIDTH 342 0
DWIDTH 5 0
BBX 4 13 1 0
BITMAP
60
60
00
00
20
e0
60
60
60
60
60
60
f0
ENDCHAR
STARTCHAR j
ENCODING 106
SWIDTH 342 0
DWIDTH 5 0
BBX 5 17 -1 -4
BITMAP
18
18
00
00
08
38
18
18
18
18
18
18
18
18
18
d0
e0
ENDCHAR
STARTCHAR k
ENCODING 107
SWIDTH 617 0
DWIDTH 9 0
BBX 9 13 1 0
BITMAP
6000
e000
6000
6000
6000
6f00
6400
6800
7000
7800
6c00
6e00
ff80
ENDCHAR
STARTCHAR l
ENCODING 108
SWIDTH 342 0
DWIDTH 5 0
BBX 4 13 1 0
BITMAP
e0
60
60
60
60
60
60
60
60
60
60
60
f0
ENDCHAR
STARTCHAR m
ENCODING 109
SWIDTH 1028 0
DWIDTH 15 0
BBX 15 9 0 0
BITMAP
fe70
3b98
3318
3318
3318
3318
3318
3318
f79e
ENDCHAR
STARTCHAR n
ENCODING 110
SWIDTH 617 0
DWIDTH 9 0
BBX 9 9 0 0
BITMAP
fe00
3b00
3300
3300
3300
3300
3300
3300
f780
ENDCHAR
STARTCHAR o
ENCODING 111
SWIDTH 617 0
DWIDTH 9 0
BBX 8 9 1 0
BITMAP
18
26
46
c3
c3
c3
62
64
38
ENDCHAR
STARTCHAR p
ENCODING 112
SWIDTH 617 0
DWIDTH 9 0
BBX 9 13 0 -4
BITMAP
ee00
7300
6380
6180
6180
6180
6300
6200
7c00
6000
6000
6000
f000
ENDCHAR
STARTCHAR q
ENCODING 113
SWIDTH 617 0
DWIDTH 9 0
BBX 8 13 1 -4
BITMAP
1a
26
46
c6
c6
c6
c6
6e
36
06
06
06
0f
ENDCHAR
STARTCHAR r
ENCODING 114
SWIDTH 411 0
DWIDTH 6 0
BBX 6 9 0 0
BITMAP
34
fc
30
30
30
30
30
30
f0
ENDCHAR
STARTCHAR s
ENCODING 115
SWIDTH 480 0
DWIDTH 7 0
BBX 6 9 1 0
BITMAP
7c
88
84
e0
78
1c
84
84
f8
ENDCHAR
STARTCHAR t
ENCODING 116
SWIDTH 342 0
DWIDTH 5 0
BBX 6 11 0 0
BITMAP
10
10
30
f8
30
30
30
30
30
34
18
ENDCHAR
STARTCHAR u
ENCODING 117
SWIDTH 617 0
DWIDTH 9 0
BBX 9 8 0 0
BITMAP
e700
6300
6300
6300
6300
6300
6700
3b80
ENDCHAR
STARTCHAR v
ENCODING 118
SWIDTH 617 0
DWIDTH 9 0
BBX 9 8 0 0
BITMAP
f380
6100
2100
3200
1200
1c00
0800
0800
ENDCHAR
STARTCHAR w
ENCODING 119
SWIDTH 960 0
DWIDTH 14 0
BBX 14 8 0 0
BITMAP
e79c
4308
6108
2390
3290
1ce0
1840
0840
ENDCHAR
STARTCHAR x
ENCODING 120
SWIDTH 617 0
DWIDTH 9 0
BBX 9 8 0 0
BITMAP
f700
6200
3400
1800
1c00
2600
4300
e780
ENDCHAR
STARTCHAR y
ENCODING 121
SWIDTH 617 0
DWIDTH 9 0
BBX 9 12 0 -4
BITMAP
f380
6100
2100
3200
1200
1c00
0c00
0800
0800
0800
f000
6000
ENDCHAR
STARTCHAR z
ENCODING 122
SWIDTH 548 0
DWIDTH 8 0
BBX 8 8 0 0
BITMAP
7f
46
0c
08
10
21
61
ff
ENDCHAR
STARTCHAR braceleft
ENCODING 123
SWIDTH 617 0
DWIDTH 9 0
BBX 5 17 3 -4
BITMAP
18
20
40
40
40
60
40
40
80
40
40
60
40
40
40
20
18
ENDCHAR
STARTCHAR bar
ENCODING 124
SWIDTH 274 0
DWIDTH 4 0
BBX 1 17 1 -4
BITMAP
80
80
80
80
80
80
80
80
80
80
80
80
80
80
80
80
80
ENDCHAR
STARTCHAR braceright
ENCODING 125
SWIDTH 617 0
DWIDTH 9 0
BBX 5 17 2 -4
BITMAP
c0
20
20
20
20
20
20
20
18
30
20
20
20
20
20
20
c0
ENDCHAR
STARTCHAR asciitilde
ENCODING 126
SWIDTH 685 0
DWIDTH 10 0
BBX 10 2 0 4
BITMAP
7840
8780
ENDCHAR
STARTCHAR exclamdown
ENCODING 161
SWIDTH 822 0
DWIDTH 12 0
BBX 9 12 1 0
BITMAP
1c00
6300
8180
f180
6180
6180
6180
6180
6180
6180
6180
6100
ENDCHAR
STARTCHAR cent
ENCODING 162
SWIDTH 822 0
DWIDTH 12 0
BBX 9 12 1 0
BITMAP
7080
5180
9980
d980
b980
5980
1980
1980
1980
1980
1980
0600
ENDCHAR
STARTCHAR sterling
ENCODING 163
SWIDTH 891 0
DWIDTH 13 0
BBX 10 12 1 0
BITMAP
4840
7cc0
9cc0
8cc0
bcc0
5cc0
3cc0
0cc0
0cc0
0cc0
0680
0300
ENDCHAR
STARTCHAR currency
ENCODING 164
SWIDTH 822 0
DWIDTH 12 0
BBX 9 12 1 0
BITMAP
3e00
4700
4380
9180
a980
e980
7180
6180
6180
6180
6180
6180
ENDCHAR
STARTCHAR yen
ENCODING 165
SWIDTH 822 0
DWIDTH 12 0
BBX 9 12 1 0
BITMAP
3200
4f00
4580
8180
9980
a580
7580
6980
6180
6180
6180
6180
ENDCHAR
STARTCHAR brokenbar
ENCODING 166
SWIDTH 960 0
DWIDTH 14 0
BBX 11 12 1 0
BITMAP
6c20
7e60
9660
8660
9660
5660
3660
0660
0f60
16e0
16e0
0c60
ENDCHAR
STARTCHAR section
ENCODING 167
SWIDTH 617 0
DWIDTH 9 0
BBX 6 12 1 0
BITMAP
18
2c
2c
1c
0c
8c
8c
4c
2c
3c
1c
0c
ENDCHAR
STARTCHAR diaeresis
ENCODING 168
SWIDTH 685 0
DWIDTH 10 0
BBX 8 12 1 0
BITMAP
38
c6
83
73
9b
fb
1b
1b
1b
1b
0a
04
ENDCHAR
STARTCHAR copyright
ENCODING 169
SWIDTH 822 0
DWIDTH 12 0
BBX 10 12 1 0
BITMAP
3c00
c700
8380
6180
9180
7180
3180
3180
3780
3ac0
3240
3180
ENDCHAR
STARTCHAR ordfeminine
ENCODING 170
SWIDTH 822 0
DWIDTH 12 0
BBX 10 12 1 0
BITMAP
70c0
5cc0
8d80
ef00
6d00
4d80
0d80
0d80
0d80
0d00
0d00
3e00
ENDCHAR
STARTCHAR guillemotleft
ENCODING 171
SWIDTH 891 0
DWIDTH 13 0
BBX 11 12 1 0
BITMAP
2c60
6c60
76c0
96c0
8700
b680
56c0
26c0
06c0
06c0
0680
0f80
ENDCHAR
STARTCHAR notsign
ENCODING 172
SWIDTH 1028 0
DWIDTH 15 0
BBX 12 12 1 0
BITMAP
3810
4630
8330
8330
f330
6330
6330
6330
6730
9bb0
9b70
6630
ENDCHAR
STARTCHAR hyphen
ENCODING 173
SWIDTH 1028 0
DWIDTH 15 0
BBX 12 17 1 -5
BITMAP
3c10
4630
4330
8330
f330
6330
6330
6330
7b30
6730
6d20
38c0
0000
01b0
03b0
0230
01c0
ENDCHAR
STARTCHAR registered
ENCODING 174
SWIDTH 822 0
DWIDTH 12 0
BBX 9 18 1 -6
BITMAP
1c00
2700
4100
c180
f180
3180
3180
3180
3180
f180
b180
c580
0980
3980
2d80
2b80
3380
0180
ENDCHAR
STARTCHAR macron
ENCODING 175
SWIDTH 822 0
DWIDTH 12 0
BBX 10 18 1 -6
BITMAP
1e00
2380
40c0
78c0
30c0
30c0
30c0
30c0
70c0
90c0
90c0
64c0
04c0
38c0
48c0
2ec0
35c0
00c0
ENDCHAR
STARTCHAR degree
ENCODING 176
SWIDTH 754 0
DWIDTH 11 0
BBX 8 17 1 -5
BITMAP
39
46
78
4c
26
5e
5e
3e
1e
1e
1e
0c
14
6a
b6
72
1e
ENDCHAR
STARTCHAR plusminus
ENCODING 177
SWIDTH 1028 0
DWIDTH 15 0
BBX 13 12 1 0
BITMAP
2c30
6e78
9698
8698
9698
5698
7718
0718
0718
0718
0618
0618
ENDCHAR
STARTCHAR twosuperior
ENCODING 178
SWIDTH 1028 0
DWIDTH 15 0
BBX 12 12 1 0
BITMAP
2610
7730
49b0
81b0
89b0
95b0
55b0
49b0
73b0
65f0
65b0
6330
ENDCHAR
STARTCHAR threesuperior
ENCODING 179
SWIDTH 1097 0
DWIDTH 16 0
BBX 13 12 1 0
BITMAP
3810
4630
8730
8330
f330
6330
6330
6330
7330
6ba8
2b28
3330
ENDCHAR
STARTCHAR acute
ENCODING 180
SWIDTH 822 0
DWIDTH 12 0
BBX 9 12 1 0
BITMAP
1c00
6300
4380
8180
8980
9580
d580
4980
7980
7180
6180
6180
ENDCHAR
STARTCHAR mu
ENCODING 181
SWIDTH 822 0
DWIDTH 12 0
BBX 9 12 1 0
BITMAP
2200
5700
4980
8180
9980
a580
a580
5980
7180
6180
6180
6180
ENDCHAR
STARTCHAR paragraph
ENCODING 182
SWIDTH 754 0
DWIDTH 11 0
BBX 9 12 1 0
BITMAP
3c00
4300
4300
8180
f180
6180
6180
6180
7180
6980
6980
1100
ENDCHAR
STARTCHAR periodcentered
ENCODING 183
SWIDTH 891 0
DWIDTH 13 0
BBX 10 12 1 0
BITMAP
6100
b380
b4c0
74c0
34c0
34c0
34c0
38c0
38c0
38c0
30c0
30c0
ENDCHAR
STARTCHAR cedilla
ENCODING 184
SWIDTH 754 0
DWIDTH 11 0
BBX 9 12 1 0
BITMAP
7880
a700
f000
3c00
3300
3300
3300
3300
3300
3300
3300
7e00
ENDCHAR
STARTCHAR onesuperior
ENCODING 185
SWIDTH 891 0
DWIDTH 13 0
BBX 11 12 1 0
BITMAP
6040
b0c0
b0c0
70c0
30c0
30c0
30c0
30c0
33c0
3d20
3120
30c0
ENDCHAR
STARTCHAR masculine
ENCODING 186
SWIDTH 891 0
DWIDTH 13 0
BBX 10 12 1 0
BITMAP
70c0
98c0
98c0
78c0
18c0
18c0
18c0
18c0
18c0
18c0
18c0
3f80
ENDCHAR
STARTCHAR guillemotright
ENCODING 187
SWIDTH 891 0
DWIDTH 13 0
BBX 10 19 1 0
BITMAP
0040
00c0
00c0
00c0
00c0
00c0
00c0
70c0
98c0
98c0
78c0
18c0
18c0
18c0
18c0
18c0
18c0
18c0
3f80
ENDCHAR
STARTCHAR onequarter
ENCODING 188
SWIDTH 754 0
DWIDTH 11 0
BBX 9 12 1 0
BITMAP
6180
d180
d180
e180
c980
c980
d580
d580
e380
c180
c180
c100
ENDCHAR
STARTCHAR onehalf
ENCODING 189
SWIDTH 754 0
DWIDTH 11 0
BBX 9 19 1 0
BITMAP
0080
0180
0180
0180
0180
0180
0180
6180
d180
d180
e180
c980
c980
d580
d580
e380
c180
c180
c100
ENDCHAR
STARTCHAR threequarters
ENCODING 190
SWIDTH 891 0
DWIDTH 13 0
BBX 11 12 1 0
BITMAP
6260
b260
b360
7560
3560
3560
34e0
38e0
38e0
38e0
3060
3060
ENDCHAR
STARTCHAR questiondown
ENCODING 191
SWIDTH 891 0
DWIDTH 13 0
BBX 11 18 1 0
BITMAP
0020
0060
0060
0060
0060
0060
6260
b260
b360
7560
3560
3560
34e0
38e0
38e0
38e0
3060
3060
ENDCHAR
STARTCHAR Agrave
ENCODING 192
SWIDTH 822 0
DWIDTH 12 0
BBX 9 12 1 0
BITMAP
1c00
2300
4180
7980
3180
3180
3180
3180
7180
9180
9180
6100
ENDCHAR
STARTCHAR Aacute
ENCODING 193
SWIDTH 822 0
DWIDTH 12 0
BBX 9 12 1 0
BITMAP
6080
b180
b180
f180
3180
3180
3180
3180
3180
f980
b580
6300
ENDCHAR
STARTCHAR Acircumflex
ENCODING 194
SWIDTH 685 0
DWIDTH 10 0
BBX 7 12 1 0
BITMAP
22
56
d6
a6
46
76
c6
c6
c6
c6
44
38
ENDCHAR
STARTCHAR Atilde
ENCODING 195
SWIDTH 685 0
DWIDTH 10 0
BBX 8 12 1 0
BITMAP
31
4e
c0
38
0c
0c
0c
0c
1c
2c
28
18
ENDCHAR
STARTCHAR Adiaeresis
ENCODING 196
SWIDTH 754 0
DWIDTH 11 0
BBX 9 17 1 -5
BITMAP
3c00
4300
4300
8180
f180
6180
6180
6180
7180
6980
6980
1180
0180
0180
0180
0180
0100
ENDCHAR
STARTCHAR Aring
ENCODING 197
SWIDTH 754 0
DWIDTH 11 0
BBX 9 12 1 0
BITMAP
3c00
4300
8180
1d80
3380
6180
6180
6180
7180
6980
6980
3180
ENDCHAR
STARTCHAR AE
ENCODING 198
SWIDTH 822 0
DWIDTH 12 0
BBX 9 17 1 -5
BITMAP
1e00
2300
4180
7980
3180
3180
3180
3180
7180
9180
9180
6180
0180
0180
0180
0180
0100
ENDCHAR
STARTCHAR Ccedilla
ENCODING 199
SWIDTH 685 0
DWIDTH 10 0
BBX 8 12 1 0
BITMAP
38
c6
83
03
03
03
03
03
0f
13
13
0e
ENDCHAR
STARTCHAR Egrave
ENCODING 200
SWIDTH 754 0
DWIDTH 11 0
BBX 10 13 1 0
BITMAP
00c0
3ec0
4380
4180
9b80
a580
e580
7980
6180
6180
6180
6180
6180
ENDCHAR
STARTCHAR Eacute
ENCODING 201
SWIDTH 891 0
DWIDTH 13 0
BBX 10 12 1 0
BITMAP
6040
b0c0
b0c0
70c0
30c0
3cc0
34c0
31c0
3ec0
30c0
30c0
7f00
ENDCHAR
STARTCHAR Ecircumflex
ENCODING 202
SWIDTH 891 0
DWIDTH 13 0
BBX 11 13 1 0
BITMAP
0060
1c60
63c0
8380
9d80
3380
6180
6180
6180
7180
6980
6980
3180
ENDCHAR
STARTCHAR Ediaeresis
ENCODING 203
SWIDTH 960 0
DWIDTH 14 0
BBX 11 12 1 0
BITMAP
60c0
b120
b120
71c0
33c0
34c0
34c0
38c0
30c0
30c0
30c0
30c0
ENDCHAR
STARTCHAR Igrave
ENCODING 204
SWIDTH 891 0
DWIDTH 13 0
BBX 12 12 1 0
BITMAP
60d0
9330
92e0
72c0
36c0
36c0
35c0
35c0
39c0
39c0
30c0
30c0
ENDCHAR
STARTCHAR Iacute
ENCODING 205
SWIDTH 754 0
DWIDTH 11 0
BBX 9 12 1 0
BITMAP
3c00
4300
8180
b180
6980
4980
7180
6180
6180
6180
2300
1c00
ENDCHAR
STARTCHAR Icircumflex
ENCODING 206
SWIDTH 754 0
DWIDTH 11 0
BBX 8 12 1 0
BITMAP
3b
ce
ce
36
06
26
d6
e6
c6
c6
4c
30
ENDCHAR
STARTCHAR Idiaeresis
ENCODING 207
SWIDTH 822 0
DWIDTH 12 0
BBX 8 12 1 0
BITMAP
07
07
67
97
8b
9b
63
03
03
03
03
03
ENDCHAR
STARTCHAR ETH
ENCODING 208
SWIDTH 685 0
DWIDTH 10 0
BBX 9 11 1 0
BITMAP
7180
d980
db00
7c00
0000
0000
0000
7180
d980
db00
7c00
ENDCHAR
STARTCHAR Ntilde
ENCODING 209
SWIDTH 0 0
DWIDTH 0 0
BBX 8 4 -7 14
BITMAP
61
91
92
7c
ENDCHAR
STARTCHAR Ograve
ENCODING 210
SWIDTH 548 0
DWIDTH 8 0
BBX 6 12 1 0
BITMAP
70
98
0c
0c
0c
0c
0c
0c
0c
0c
0c
0c
ENDCHAR
STARTCHAR Oacute
ENCODING 211
SWIDTH 548 0
DWIDTH 8 0
BBX 12 19 -5 0
BITMAP
7000
8800
8800
8800
7000
0000
0000
01c0
0260
0030
0030
0030
0030
0030
0030
0030
0030
0030
0030
ENDCHAR
STARTCHAR Ocircumflex
ENCODING 212
SWIDTH 0 0
DWIDTH 0 0
BBX 9 5 -10 14
BITMAP
1e00
6300
8100
fc80
0380
ENDCHAR
STARTCHAR Otilde
ENCODING 213
SWIDTH 0 0
DWIDTH 0 0
BBX 9 6 -11 13
BITMAP
0180
3f80
4180
fc80
8f80
0180
ENDCHAR
STARTCHAR Odiaeresis
ENCODING 214
SWIDTH 0 0
DWIDTH 0 0
BBX 10 6 -10 14
BITMAP
0180
1e40
6380
8080
fe80
03c0
ENDCHAR
STARTCHAR multiply
ENCODING 215
SWIDTH 0 0
DWIDTH 0 0
BBX 9 7 -10 13
BITMAP
0580
0580
3f80
4180
fc80
8380
0080
ENDCHAR
STARTCHAR Ooblique
ENCODING 216
SWIDTH 0 0
DWIDTH 0 0
BBX 4 5 -6 -6
BITMAP
60
b0
70
30
30
ENDCHAR
STARTCHAR Ugrave
ENCODING 217
SWIDTH 0 0
DWIDTH 0 0
BBX 6 5 -8 -6
BITMAP
6c
9c
7c
1c
18
ENDCHAR
STARTCHAR Uacute
ENCODING 218
SWIDTH 0 0
DWIDTH 0 0
BBX 2 2 -3 -4
BITMAP
c0
c0
ENDCHAR
STARTCHAR Ucircumflex
ENCODING 219
SWIDTH 411 0
DWIDTH 6 0
BBX 0 0 0 0
BITMAP
ENDCHAR
STARTCHAR Udiaeresis
ENCODING 220
SWIDTH 411 0
DWIDTH 6 0
BBX 7 3 0 -3
BITMAP
fc
fe
84
ENDCHAR
STARTCHAR ssharp
ENCODING 223
SWIDTH 891 0
DWIDTH 13 0
BBX 11 15 1 -1
BITMAP
0600
ff00
7780
36c0
36c0
36c0
3f80
3f00
36c0
3660
3660
3660
76c0
ff80
0600
ENDCHAR
STARTCHAR agrave
ENCODING 224
SWIDTH 342 0
DWIDTH 5 0
BBX 3 12 1 0
BITMAP
40
c0
c0
c0
c0
c0
c0
c0
c0
e0
a0
40
ENDCHAR
STARTCHAR aacute
ENCODING 225
SWIDTH 754 0
DWIDTH 11 0
BBX 10 12 1 0
BITMAP
4100
c300
c300
c300
c300
c300
c300
c300
c300
a280
a280
4100
ENDCHAR
STARTCHAR acircumflex
ENCODING 226
SWIDTH 685 0
DWIDTH 10 0
BBX 8 19 1 0
BITMAP
38
df
c4
30
0c
0c
0c
0c
0c
0c
0c
0c
0c
0c
0c
0c
0a
0a
04
ENDCHAR
STARTCHAR atilde
ENCODING 227
SWIDTH 617 0
DWIDTH 9 0
BBX 7 19 1 0
BITMAP
30
d8
b8
98
78
18
18
18
18
18
18
18
18
18
18
18
16
12
0c
ENDCHAR
STARTCHAR adiaeresis
ENCODING 228
SWIDTH 685 0
DWIDTH 10 0
BBX 8 20 1 0
BITMAP
c0
4c
5c
5c
5c
5c
2c
0c
0c
0c
0c
0c
0c
0c
0c
0c
0c
0a
09
06
ENDCHAR
STARTCHAR aring
ENCODING 229
SWIDTH 548 0
DWIDTH 8 0
BBX 6 17 1 -5
BITMAP
70
9c
0c
0c
0c
0c
0c
0c
0c
0c
0c
0c
0c
0c
0c
0c
0c
ENDCHAR
STARTCHAR ae
ENCODING 230
SWIDTH 822 0
DWIDTH 12 0
BBX 9 16 1 -4
BITMAP
2600
5b00
8180
8180
a180
a180
6180
0180
0180
0180
0180
0180
0180
0180
0180
0180
ENDCHAR
STARTCHAR ccedilla
ENCODING 231
SWIDTH 0 0
DWIDTH 0 0
BBX 7 7 -9 14
BITMAP
06
06
78
8c
8e
a6
5c
ENDCHAR
STARTCHAR egrave
ENCODING 232
SWIDTH 0 0
DWIDTH 0 0
BBX 2 4 -4 21
BITMAP
c0
c0
c0
c0
ENDCHAR
STARTCHAR eacute
ENCODING 233
SWIDTH 0 0
DWIDTH 0 0
BBX 6 6 -4 21
BITMAP
44
a4
a8
68
50
e0
ENDCHAR
STARTCHAR ecircumflex
ENCODING 234
SWIDTH 0 0
DWIDTH 0 0
BBX 7 6 -7 21
BITMAP
02
4a
b6
86
a4
6c
ENDCHAR
STARTCHAR ediaeresis
ENCODING 235
SWIDTH 0 0
DWIDTH 0 0
BBX 5 5 -6 21
BITMAP
20
20
f8
20
20
ENDCHAR
STARTCHAR igrave
ENCODING 236
SWIDTH 0 0
DWIDTH 0 0
BBX 5 6 -3 19
BITMAP
08
18
60
a0
a0
40
ENDCHAR
STARTCHAR iacute
ENCODING 237
SWIDTH 0 0
DWIDTH 0 0
BBX 4 5 -6 13
BITMAP
60
90
90
90
60
ENDCHAR
STARTCHAR icircumflex
ENCODING 238
SWIDTH 0 0
DWIDTH 0 0
BBX 5 7 -5 14
BITMAP
38
40
40
60
80
80
e0
ENDCHAR
STARTCHAR idiaeresis
ENCODING 239
SWIDTH 822 0
DWIDTH 12 0
BBX 10 10 1 0
BITMAP
3c00
4300
9c80
be40
be40
be40
9c40
4080
2100
1e00
ENDCHAR
STARTCHAR eth
ENCODING 240
SWIDTH 822 0
DWIDTH 12 0
BBX 9 9 1 0
BITMAP
1e00
6700
e300
c180
c180
c180
e380
6300
1c00
ENDCHAR
STARTCHAR ntilde
ENCODING 241
SWIDTH 822 0
DWIDTH 12 0
BBX 9 8 1 0
BITMAP
3c00
6300
c180
9880
9c80
8c80
4900
3200
ENDCHAR
STARTCHAR ograve
ENCODING 242
SWIDTH 1165 0
DWIDTH 17 0
BBX 14 13 1 0
BITMAP
e000
6000
6000
6000
6000
63b8
67fc
6c44
68c4
69c4
67c8
6018
3ff0
ENDCHAR
STARTCHAR oacute
ENCODING 243
SWIDTH 1028 0
DWIDTH 15 0
BBX 12 9 1 0
BITMAP
1800
66e0
43b0
c110
8110
b110
7910
5b20
3660
ENDCHAR
STARTCHAR ocircumflex
ENCODING 244
SWIDTH 1028 0
DWIDTH 15 0
BBX 12 13 1 0
BITMAP
0030
0030
0020
00c0
0700
1800
6180
63c0
c2c0
c200
e100
71c0
3e30
ENDCHAR
STARTCHAR otilde
ENCODING 245
SWIDTH 1028 0
DWIDTH 15 0
BBX 13 13 1 0
BITMAP
0018
0718
0930
0d60
0780
1c00
30e0
61e0
c160
c100
c180
63e0
1c30
ENDCHAR
STARTCHAR odiaeresis
ENCODING 246
SWIDTH 822 0
DWIDTH 12 0
BBX 10 13 1 0
BITMAP
8000
c000
6000
2000
2000
3e00
6380
01c0
30c0
70c0
61c0
3380
1e00
ENDCHAR
STARTCHAR division
ENCODING 247
SWIDTH 1097 0
DWIDTH 16 0
BBX 13 13 1 0
BITMAP
0080
00e0
0070
0030
0018
3988
7b88
c448
8048
8c50
dc60
7cc0
3880
ENDCHAR
STARTCHAR oslash
ENCODING 248
SWIDTH 1028 0
DWIDTH 15 0
BBX 12 13 1 0
BITMAP
0030
0030
0030
0030
0030
3c60
7fc0
4000
8000
98c0
fce0
7660
21c0
ENDCHAR
STARTCHAR ugrave
ENCODING 249
SWIDTH 822 0
DWIDTH 12 0
BBX 9 13 1 0
BITMAP
0080
0180
7f00
4000
6000
3f00
6000
c600
8700
8700
c100
6200
3c00
ENDCHAR
STARTCHAR uacute
ENCODING 250
SWIDTH 960 0
DWIDTH 14 0
BBX 11 12 1 0
BITMAP
0760
0760
6760
db60
8b60
9360
6360
0360
0360
0360
0360
0360
ENDCHAR
STARTCHAR ucircumflex
ENCODING 251
SWIDTH 1645 0
DWIDTH 24 0
BBX 22 11 1 0
BITMAP
3e0000
630000
400000
800000
800000
804884
80cd8c
c0b748
419230
630000
3e0000
ENDCHAR
STARTCHAR udiaeresis
ENCODING 252
SWIDTH 0 0
DWIDTH 0 0
BBX 3 5 -5 -12
BITMAP
40
a0
60
60
60
ENDCHAR
STARTCHAR yacute
ENCODING 253
SWIDTH 0 0
DWIDTH 0 0
BBX 6 6 -8 -12
BITMAP
60
9c
9c
7c
1c
18
ENDCHAR
STARTCHAR thorn
ENCODING 254
SWIDTH 0 0
DWIDTH 0 0
BBX 2 3 -4 -11
BITMAP
c0
c0
c0
ENDCHAR
STARTCHAR C000400
ENCODING 256
SWIDTH 342 0
DWIDTH 5 0
BBX 0 0 0 0
BITMAP
ENDCHAR
STARTCHAR C000401
ENCODING 257
SWIDTH 342 0
DWIDTH 5 0
BBX 0 0 0 0
BITMAP
ENDCHAR
STARTCHAR C000430
ENCODING 280
SWIDTH 342 0
DWIDTH 5 0
BBX 0 0 0 0
BITMAP
ENDCHAR
STARTCHAR C001103
ENCODING 579
SWIDTH 617 0
DWIDTH 9 0
BBX 10 1 0 4
BITMAP
ffc0
ENDCHAR
STARTCHAR C001104
ENCODING 580
SWIDTH 1302 0
DWIDTH 19 0
BBX 19 1 0 4
BITMAP
ffffe0
ENDCHAR
STARTCHAR C001107
ENCODING 583
SWIDTH 411 0
DWIDTH 6 0
BBX 3 5 2 8
BITMAP
60
40
80
e0
60
ENDCHAR
STARTCHAR C001110
ENCODING 584
SWIDTH 411 0
DWIDTH 6 0
BBX 3 5 2 8
BITMAP
c0
e0
20
20
c0
ENDCHAR
STARTCHAR C001113
ENCODING 587
SWIDTH 548 0
DWIDTH 8 0
BBX 7 5 1 8
BITMAP
46
44
88
ee
46
ENDCHAR
STARTCHAR C001114
ENCODING 588
SWIDTH 548 0
DWIDTH 8 0
BBX 7 5 1 10
BITMAP
c4
ee
22
22
c4
ENDCHAR
STARTCHAR C001115
ENCODING 589
SWIDTH 548 0
DWIDTH 8 0
BBX 7 5 1 -3
BITMAP
c4
ee
22
22
c4
ENDCHAR
STARTCHAR C001121
ENCODING 593
SWIDTH 480 0
DWIDTH 7 0
BBX 5 5 1 4
BITMAP
70
f8
f8
f8
70
ENDCHAR
STARTCHAR C001122
ENCODING 594
SWIDTH 1302 0
DWIDTH 19 0
BBX 15 2 2 0
BITMAP
c186
c186
ENDCHAR
ENDFONT
